<mxfile host="app.diagrams.net" agent="Mozilla/5.0 (Macintosh; Intel Mac OS X 10.15; rv:128.0) Gecko/20100101 Firefox/128.0" version="24.7.10">
  <diagram name="Page-1" id="-dPDnjU8LT3LJoZab6Xh">
    <mxGraphModel dx="954" dy="643" grid="1" gridSize="10" guides="1" tooltips="1" connect="1" arrows="1" fold="1" page="1" pageScale="1" pageWidth="850" pageHeight="1100" math="1" shadow="0">
      <root>
        <mxCell id="0" />
        <mxCell id="1" parent="0" />
        <mxCell id="FX4IsUK5ohqtnQvBbV1v-15" style="edgeStyle=orthogonalEdgeStyle;rounded=0;orthogonalLoop=1;jettySize=auto;html=1;" edge="1" parent="1" source="m3eBHRb58b5vIoWao_uQ-3" target="FX4IsUK5ohqtnQvBbV1v-2">
          <mxGeometry relative="1" as="geometry" />
        </mxCell>
        <mxCell id="m3eBHRb58b5vIoWao_uQ-3" value="$$m$$" style="rounded=1;whiteSpace=wrap;html=1;fillColor=#fff2cc;strokeColor=#d6b656;" parent="1" vertex="1">
          <mxGeometry x="160" y="360" width="50" height="50" as="geometry" />
        </mxCell>
        <mxCell id="FX4IsUK5ohqtnQvBbV1v-17" style="edgeStyle=orthogonalEdgeStyle;rounded=0;orthogonalLoop=1;jettySize=auto;html=1;" edge="1" parent="1" source="m3eBHRb58b5vIoWao_uQ-4" target="FX4IsUK5ohqtnQvBbV1v-3">
          <mxGeometry relative="1" as="geometry" />
        </mxCell>
        <mxCell id="m3eBHRb58b5vIoWao_uQ-4" value="$$t$$" style="rounded=1;whiteSpace=wrap;html=1;fillColor=#fff2cc;strokeColor=#d6b656;" parent="1" vertex="1">
          <mxGeometry x="160" y="430" width="50" height="50" as="geometry" />
        </mxCell>
        <mxCell id="FX4IsUK5ohqtnQvBbV1v-2" value="$$\alpha(m)$$" style="rounded=1;whiteSpace=wrap;html=1;fillColor=#d5e8d4;strokeColor=#82b366;" vertex="1" parent="1">
          <mxGeometry x="240" y="360" width="50" height="50" as="geometry" />
        </mxCell>
        <mxCell id="FX4IsUK5ohqtnQvBbV1v-42" style="edgeStyle=orthogonalEdgeStyle;rounded=0;orthogonalLoop=1;jettySize=auto;html=1;entryX=0.25;entryY=1;entryDx=0;entryDy=0;" edge="1" parent="1" source="FX4IsUK5ohqtnQvBbV1v-3" target="FX4IsUK5ohqtnQvBbV1v-7">
          <mxGeometry relative="1" as="geometry" />
        </mxCell>
        <mxCell id="FX4IsUK5ohqtnQvBbV1v-84" style="edgeStyle=orthogonalEdgeStyle;rounded=0;orthogonalLoop=1;jettySize=auto;html=1;entryX=0.75;entryY=1;entryDx=0;entryDy=0;" edge="1" parent="1" source="FX4IsUK5ohqtnQvBbV1v-3" target="FX4IsUK5ohqtnQvBbV1v-6">
          <mxGeometry relative="1" as="geometry">
            <Array as="points">
              <mxPoint x="318" y="455" />
              <mxPoint x="318" y="378" />
            </Array>
          </mxGeometry>
        </mxCell>
        <mxCell id="FX4IsUK5ohqtnQvBbV1v-3" value="&lt;div&gt;$$\beta(t)$$&lt;/div&gt;" style="rounded=1;whiteSpace=wrap;html=1;fillColor=#d5e8d4;strokeColor=#82b366;" vertex="1" parent="1">
          <mxGeometry x="240" y="430" width="50" height="50" as="geometry" />
        </mxCell>
        <mxCell id="FX4IsUK5ohqtnQvBbV1v-46" style="edgeStyle=orthogonalEdgeStyle;rounded=0;orthogonalLoop=1;jettySize=auto;html=1;entryX=0;entryY=0.5;entryDx=0;entryDy=0;exitX=1;exitY=0.25;exitDx=0;exitDy=0;" edge="1" parent="1" source="FX4IsUK5ohqtnQvBbV1v-6" target="FX4IsUK5ohqtnQvBbV1v-8">
          <mxGeometry relative="1" as="geometry">
            <Array as="points">
              <mxPoint x="350" y="300" />
              <mxPoint x="360" y="300" />
              <mxPoint x="360" y="245" />
            </Array>
          </mxGeometry>
        </mxCell>
        <mxCell id="FX4IsUK5ohqtnQvBbV1v-52" style="edgeStyle=orthogonalEdgeStyle;rounded=0;orthogonalLoop=1;jettySize=auto;html=1;entryX=0;entryY=0.5;entryDx=0;entryDy=0;exitX=1;exitY=0.25;exitDx=0;exitDy=0;" edge="1" parent="1" source="FX4IsUK5ohqtnQvBbV1v-6" target="FX4IsUK5ohqtnQvBbV1v-50">
          <mxGeometry relative="1" as="geometry">
            <Array as="points">
              <mxPoint x="350" y="300" />
              <mxPoint x="360" y="300" />
              <mxPoint x="360" y="165" />
            </Array>
          </mxGeometry>
        </mxCell>
        <mxCell id="FX4IsUK5ohqtnQvBbV1v-6" value="$${\phi}_{m,t}^{c}$$" style="rounded=1;whiteSpace=wrap;html=1;fillColor=#dae8fc;strokeColor=#6c8ebf;rotation=0;" vertex="1" parent="1">
          <mxGeometry x="220" y="295" width="130" height="30" as="geometry" />
        </mxCell>
        <mxCell id="FX4IsUK5ohqtnQvBbV1v-49" style="edgeStyle=orthogonalEdgeStyle;rounded=0;orthogonalLoop=1;jettySize=auto;html=1;entryX=0.5;entryY=1;entryDx=0;entryDy=0;" edge="1" parent="1" source="FX4IsUK5ohqtnQvBbV1v-7" target="FX4IsUK5ohqtnQvBbV1v-8">
          <mxGeometry relative="1" as="geometry">
            <Array as="points">
              <mxPoint x="450" y="290" />
              <mxPoint x="450" y="290" />
            </Array>
          </mxGeometry>
        </mxCell>
        <mxCell id="FX4IsUK5ohqtnQvBbV1v-7" value="$${\phi}_{m,t}^{i}$$" style="rounded=1;whiteSpace=wrap;html=1;fillColor=#dae8fc;strokeColor=#6c8ebf;rotation=0;" vertex="1" parent="1">
          <mxGeometry x="400" y="295" width="130" height="30" as="geometry" />
        </mxCell>
        <mxCell id="FX4IsUK5ohqtnQvBbV1v-51" style="edgeStyle=orthogonalEdgeStyle;rounded=0;orthogonalLoop=1;jettySize=auto;html=1;entryX=0.5;entryY=1;entryDx=0;entryDy=0;" edge="1" parent="1" source="FX4IsUK5ohqtnQvBbV1v-8" target="FX4IsUK5ohqtnQvBbV1v-50">
          <mxGeometry relative="1" as="geometry" />
        </mxCell>
        <mxCell id="FX4IsUK5ohqtnQvBbV1v-8" value="&lt;div&gt;ResNet&lt;/div&gt;&lt;div&gt;Block&lt;br&gt;&lt;/div&gt;" style="rounded=1;whiteSpace=wrap;html=1;fillColor=#f5f5f5;fontColor=#333333;strokeColor=#666666;" vertex="1" parent="1">
          <mxGeometry x="410" y="220" width="80" height="50" as="geometry" />
        </mxCell>
        <mxCell id="FX4IsUK5ohqtnQvBbV1v-64" value="" style="edgeStyle=orthogonalEdgeStyle;rounded=0;orthogonalLoop=1;jettySize=auto;html=1;" edge="1" parent="1" source="FX4IsUK5ohqtnQvBbV1v-13">
          <mxGeometry relative="1" as="geometry">
            <mxPoint x="450" y="70" as="targetPoint" />
          </mxGeometry>
        </mxCell>
        <mxCell id="FX4IsUK5ohqtnQvBbV1v-13" value="Linear" style="whiteSpace=wrap;html=1;fillColor=#dae8fc;strokeColor=#6c8ebf;rounded=1;" vertex="1" parent="1">
          <mxGeometry x="385" y="100" width="130" height="20" as="geometry" />
        </mxCell>
        <mxCell id="FX4IsUK5ohqtnQvBbV1v-37" value="$$x$$" style="rounded=1;whiteSpace=wrap;html=1;fillColor=#fff2cc;strokeColor=#d6b656;" vertex="1" parent="1">
          <mxGeometry x="455" y="420" width="50" height="50" as="geometry" />
        </mxCell>
        <mxCell id="FX4IsUK5ohqtnQvBbV1v-41" style="edgeStyle=orthogonalEdgeStyle;rounded=0;orthogonalLoop=1;jettySize=auto;html=1;entryX=0.069;entryY=1.1;entryDx=0;entryDy=0;entryPerimeter=0;exitX=1;exitY=0.75;exitDx=0;exitDy=0;" edge="1" parent="1" source="FX4IsUK5ohqtnQvBbV1v-2" target="FX4IsUK5ohqtnQvBbV1v-7">
          <mxGeometry relative="1" as="geometry" />
        </mxCell>
        <mxCell id="FX4IsUK5ohqtnQvBbV1v-43" style="edgeStyle=orthogonalEdgeStyle;rounded=0;orthogonalLoop=1;jettySize=auto;html=1;entryX=0.615;entryY=1.067;entryDx=0;entryDy=0;entryPerimeter=0;" edge="1" parent="1" source="FX4IsUK5ohqtnQvBbV1v-37" target="FX4IsUK5ohqtnQvBbV1v-7">
          <mxGeometry relative="1" as="geometry" />
        </mxCell>
        <mxCell id="FX4IsUK5ohqtnQvBbV1v-47" value="&lt;font style=&quot;font-size: 15px;&quot;&gt;&lt;b&gt;$$ \gamma_i$$&lt;br&gt;&lt;/b&gt;&lt;/font&gt;" style="text;html=1;align=center;verticalAlign=middle;whiteSpace=wrap;rounded=0;" vertex="1" parent="1">
          <mxGeometry x="410" y="280" width="35" height="20" as="geometry" />
        </mxCell>
        <mxCell id="FX4IsUK5ohqtnQvBbV1v-48" value="&lt;font style=&quot;font-size: 15px;&quot;&gt;&lt;b&gt;$$ \gamma_c$$&lt;br&gt;&lt;/b&gt;&lt;/font&gt;" style="text;html=1;align=center;verticalAlign=middle;whiteSpace=wrap;rounded=0;" vertex="1" parent="1">
          <mxGeometry x="330" y="270" width="35" height="20" as="geometry" />
        </mxCell>
        <mxCell id="FX4IsUK5ohqtnQvBbV1v-59" value="" style="edgeStyle=orthogonalEdgeStyle;rounded=0;orthogonalLoop=1;jettySize=auto;html=1;" edge="1" parent="1" source="FX4IsUK5ohqtnQvBbV1v-50" target="FX4IsUK5ohqtnQvBbV1v-13">
          <mxGeometry relative="1" as="geometry" />
        </mxCell>
        <mxCell id="FX4IsUK5ohqtnQvBbV1v-50" value="&lt;div&gt;ResNet&lt;/div&gt;&lt;div&gt;Block&lt;br&gt;&lt;/div&gt;" style="rounded=1;whiteSpace=wrap;html=1;fillColor=#f5f5f5;fontColor=#333333;strokeColor=#666666;" vertex="1" parent="1">
          <mxGeometry x="410" y="140" width="80" height="50" as="geometry" />
        </mxCell>
        <mxCell id="FX4IsUK5ohqtnQvBbV1v-55" value="$$ \times (K-1)$$" style="text;html=1;align=center;verticalAlign=middle;resizable=0;points=[];autosize=1;strokeColor=none;fillColor=none;" vertex="1" parent="1">
          <mxGeometry x="470" y="150" width="120" height="30" as="geometry" />
        </mxCell>
        <mxCell id="FX4IsUK5ohqtnQvBbV1v-57" style="edgeStyle=orthogonalEdgeStyle;rounded=0;orthogonalLoop=1;jettySize=auto;html=1;entryX=0.346;entryY=1.1;entryDx=0;entryDy=0;entryPerimeter=0;" edge="1" parent="1">
          <mxGeometry relative="1" as="geometry">
            <mxPoint x="265" y="358" as="sourcePoint" />
            <mxPoint x="264.98" y="326" as="targetPoint" />
          </mxGeometry>
        </mxCell>
        <mxCell id="FX4IsUK5ohqtnQvBbV1v-65" value="$$ v(x|t,m)$$" style="text;html=1;align=center;verticalAlign=middle;whiteSpace=wrap;rounded=0;" vertex="1" parent="1">
          <mxGeometry x="420" y="40" width="60" height="30" as="geometry" />
        </mxCell>
        <mxCell id="FX4IsUK5ohqtnQvBbV1v-85" value="" style="group" vertex="1" connectable="0" parent="1">
          <mxGeometry x="170" y="90" width="160" height="173.32999999999998" as="geometry" />
        </mxCell>
        <mxCell id="FX4IsUK5ohqtnQvBbV1v-66" value="" style="rounded=1;whiteSpace=wrap;html=1;fillColor=#f5f5f5;fontColor=#333333;strokeColor=#666666;" vertex="1" parent="FX4IsUK5ohqtnQvBbV1v-85">
          <mxGeometry x="41.481481481481474" y="26.66666666666666" width="118.51851851851849" height="93.33333333333331" as="geometry" />
        </mxCell>
        <mxCell id="FX4IsUK5ohqtnQvBbV1v-80" style="edgeStyle=orthogonalEdgeStyle;rounded=0;orthogonalLoop=1;jettySize=auto;html=1;entryX=0.5;entryY=1;entryDx=0;entryDy=0;" edge="1" parent="FX4IsUK5ohqtnQvBbV1v-85" source="FX4IsUK5ohqtnQvBbV1v-67" target="FX4IsUK5ohqtnQvBbV1v-75">
          <mxGeometry relative="1" as="geometry" />
        </mxCell>
        <mxCell id="FX4IsUK5ohqtnQvBbV1v-67" value="$$\phi^K $$" style="rounded=1;whiteSpace=wrap;html=1;fillColor=#dae8fc;strokeColor=#6c8ebf;rotation=0;" vertex="1" parent="FX4IsUK5ohqtnQvBbV1v-85">
          <mxGeometry x="63.7037037037037" y="86.66666666666664" width="74.07407407407406" height="20" as="geometry" />
        </mxCell>
        <mxCell id="FX4IsUK5ohqtnQvBbV1v-68" style="edgeStyle=orthogonalEdgeStyle;rounded=0;orthogonalLoop=1;jettySize=auto;html=1;entryX=0.5;entryY=1;entryDx=0;entryDy=0;" edge="1" parent="FX4IsUK5ohqtnQvBbV1v-85">
          <mxGeometry relative="1" as="geometry">
            <mxPoint x="100.44444444444441" y="126.66666666666666" as="sourcePoint" />
            <mxPoint x="100.44444444444441" y="106.66666666666664" as="targetPoint" />
            <Array as="points">
              <mxPoint x="100.44444444444441" y="160" />
              <mxPoint x="100.44444444444441" y="160" />
            </Array>
          </mxGeometry>
        </mxCell>
        <mxCell id="FX4IsUK5ohqtnQvBbV1v-72" value="&lt;font style=&quot;font-size: 15px;&quot;&gt;&lt;b&gt;$$ \gamma_i$$&lt;br&gt;&lt;/b&gt;&lt;/font&gt;" style="text;html=1;align=center;verticalAlign=middle;whiteSpace=wrap;rounded=0;" vertex="1" parent="FX4IsUK5ohqtnQvBbV1v-85">
          <mxGeometry x="77.03703703703702" y="133.33333333333331" width="20.740740740740737" height="13.33333333333333" as="geometry" />
        </mxCell>
        <mxCell id="FX4IsUK5ohqtnQvBbV1v-83" style="edgeStyle=orthogonalEdgeStyle;rounded=0;orthogonalLoop=1;jettySize=auto;html=1;" edge="1" parent="FX4IsUK5ohqtnQvBbV1v-85" source="FX4IsUK5ohqtnQvBbV1v-75">
          <mxGeometry relative="1" as="geometry">
            <mxPoint x="100.74074074074073" as="targetPoint" />
          </mxGeometry>
        </mxCell>
        <mxCell id="FX4IsUK5ohqtnQvBbV1v-75" value="" style="shape=sumEllipse;perimeter=ellipsePerimeter;whiteSpace=wrap;html=1;backgroundOutline=1;" vertex="1" parent="FX4IsUK5ohqtnQvBbV1v-85">
          <mxGeometry x="91.85185185185183" y="46.66666666666666" width="17.777777777777775" height="20" as="geometry" />
        </mxCell>
        <mxCell id="FX4IsUK5ohqtnQvBbV1v-81" value="" style="edgeStyle=none;orthogonalLoop=1;jettySize=auto;html=1;rounded=0;entryX=0;entryY=0.5;entryDx=0;entryDy=0;" edge="1" parent="FX4IsUK5ohqtnQvBbV1v-85" target="FX4IsUK5ohqtnQvBbV1v-75">
          <mxGeometry width="100" relative="1" as="geometry">
            <mxPoint y="56.666666666666664" as="sourcePoint" />
            <mxPoint x="94.81481481481481" y="58" as="targetPoint" />
            <Array as="points" />
          </mxGeometry>
        </mxCell>
        <mxCell id="FX4IsUK5ohqtnQvBbV1v-82" value="&lt;font style=&quot;font-size: 15px;&quot;&gt;&lt;b&gt;$$ \gamma_c$$&lt;br&gt;&lt;/b&gt;&lt;/font&gt;" style="text;html=1;align=center;verticalAlign=middle;whiteSpace=wrap;rounded=0;" vertex="1" parent="FX4IsUK5ohqtnQvBbV1v-85">
          <mxGeometry x="11.851851851851851" y="66.66666666666666" width="20.740740740740737" height="13.33333333333333" as="geometry" />
        </mxCell>
        <mxCell id="FX4IsUK5ohqtnQvBbV1v-87" value="&lt;div&gt;ResNet&lt;/div&gt;&lt;div&gt;Block&lt;br&gt;&lt;/div&gt;" style="text;html=1;align=center;verticalAlign=middle;resizable=0;points=[];autosize=1;strokeColor=none;fillColor=none;" vertex="1" parent="FX4IsUK5ohqtnQvBbV1v-85">
          <mxGeometry x="-8.881784197001252e-16" y="119.99999999999999" width="60" height="40" as="geometry" />
        </mxCell>
      </root>
    </mxGraphModel>
  </diagram>
</mxfile>
